# xmcd
#
# Track frame offsets: 
#        150
#        9260
#        20638
#        31623
#        43683
#        55380
#        68790
#        79558
#        91045
#        101505
#        114413
#        126358
#        137895
#        149650
#        161130
#        170003
#        182975
#        196368
#        209618
#        219095
#        229063
#        239508
#        251350
#        261610
#
# Disc length: 3628 seconds
#
# Revision: 7
# Processed by: cddbd v1.5.2PL0 Copyright (c) Steve Scherf et al.
# Submitted via: ExactAudioCopy v1.0b1
#
DISCID=5b0e2a18
DTITLE=Various Artist - Country U.S.A. Vol. 2 1957
DYEAR=1988
DGENRE=Country
TTITLE0=Webb Pierce - Honky Tonk Song
TTITLE1=Marty Robbins - A White Sport Coat (And A Pink Carnation)
TTITLE2=Carl Perkins - Dixie Fried
TTITLE3=Johnny Cash - Home Of The Blues
TTITLE4=Patsy Cline - Walkin' After Midnight
TTITLE5=Bobby Helms - My Special Angel
TTITLE6=Everly Brothers - Bye Bye Love
TTITLE7=Marvin Rainwater - Gonna Find Me A Bluebird
TTITLE8=Jimmy C. Newman - A Fallen Star
TTITLE9=Jim Reeves - Four Walls
TTITLE10=Kitty Wells - Repenting
TTITLE11=Marty Robbins - The Story Of My Life
TTITLE12=Ray Price - My Shoes Keep Walking Back To You
TTITLE13=Sonny James - Young Love
TTITLE14=Webb Pierce - I'm Tired
TTITLE15=Bobby Helms - Fraulein
TTITLE16=Jimmie Skinner - I Found My Girl In The U.S.A.
TTITLE17=Jerry Lee Lewis - You Win Again
TTITLE18=Johnny Horton - I'm Coming Home
TTITLE19=Marty Robbins - Knee Deep In The Blues
TTITLE20=Jim Reeves - Am I Losing You
TTITLE21=Hank Snow - Tangled Mind
TTITLE22=Jimmie Rodgers - Honeycomb
TTITLE23=Ferlin Husky - Gone
EXTD=
EXTT0=Webb Pierce
EXTT1=Marty Robbins
EXTT2=Carl Perkins
EXTT3=Johnny Cash
EXTT4=Patsy Cline
EXTT5=Bobby Helms
EXTT6=The Everly Brothers
EXTT7=Marvin Rainwater
EXTT8=Jimmy "C" Newman
EXTT9=Jim Reeves
EXTT10=Kitty Wells
EXTT11=Marty Robbins
EXTT12=Ray Price
EXTT13=Sonny James
EXTT14=Webb Pierce
EXTT15=Bobby Helms
EXTT16=Jimmie Skinner
EXTT17=Jerry Lee Lewis
EXTT18=Johnny Horton
EXTT19=Marty Robbins
EXTT20=Jim Reeves
EXTT21=Hank Snow
EXTT22=Jimmie Rodgers
EXTT23=Ferlin Husky
PLAYORDER=
